<!-- stock-chart.svg -->
<svg width="200" height="150" xmlns="http://www.w3.org/2000/svg">
  <!-- Background -->
  <rect width="100%" height="100%" fill="white" />
  
  <!-- X and Y axes -->
  <line x1="30" y1="10" x2="30" y2="140" stroke="black" stroke-width="5"/>
  <line x1="30" y1="140" x2="190" y2="140" stroke="black" stroke-width="5"/>

  <!-- Grid lines -->
  <line x1="30" y1="120" x2="190" y2="120" stroke="#ddd" stroke-width="3" stroke-dasharray="4"/>
  <line x1="30" y1="100" x2="190" y2="100" stroke="#ddd" stroke-width="3" stroke-dasharray="4"/>
  <line x1="30" y1="80" x2="190" y2="80" stroke="#ddd" stroke-width="3" stroke-dasharray="4"/>
  <line x1="30" y1="60" x2="190" y2="60" stroke="#ddd" stroke-width="3" stroke-dasharray="4"/>
  <line x1="30" y1="40" x2="190" y2="40" stroke="#ddd" stroke-width="3" stroke-dasharray="4"/>
  <line x1="60" y1="10" x2="60" y2="140" stroke="#ddd" stroke-width="3" stroke-dasharray="4"/>
  <line x1="90" y1="10" x2="90" y2="140" stroke="#ddd" stroke-width="3" stroke-dasharray="4"/>
  <line x1="120" y1="10" x2="120" y2="140" stroke="#ddd" stroke-width="3" stroke-dasharray="4"/>
  <line x1="150" y1="10" x2="150" y2="140" stroke="#ddd" stroke-width="3" stroke-dasharray="4"/>
  <line x1="180" y1="10" x2="180" y2="140" stroke="#ddd" stroke-width="3" stroke-dasharray="4"/>

  <!-- Data line -->
  <polyline points="30,120 60,90 90,70 120,60 150,80 180,40" 
            fill="none" stroke="red" stroke-width="10" />
  
  <!-- Data points -->
  <circle cx="30" cy="120" r="4" fill="red"/>
  <circle cx="60" cy="90" r="4" fill="red"/>
  <circle cx="90" cy="70" r="4" fill="red"/>
  <circle cx="120" cy="60" r="4" fill="red"/>
  <circle cx="150" cy="80" r="4" fill="red"/>
  <circle cx="180" cy="40" r="4" fill="red"/>
</svg>

